<svg width="32" height="32" viewBox="0 0 32 32" fill="none" xmlns="http://www.w3.org/2000/svg">
<g clip-path="url(#clip0_49_1197)">
<path d="M16 31.3601C24.4831 31.3601 31.36 24.4832 31.36 16.0001C31.36 7.51704 24.4831 0.640137 16 0.640137C7.51692 0.640137 0.640015 7.51704 0.640015 16.0001C0.640015 24.4832 7.51692 31.3601 16 31.3601Z" stroke="white" stroke-width="2" stroke-miterlimit="10" stroke-linecap="round"/>
<circle cx="16" cy="16" r="16" fill="#D9D9D9"/>
<path d="M19.1571 22.7381C19.0637 21.7065 19.0995 20.9865 19.0995 20.0437C19.5667 19.7986 20.4038 18.2357 20.5453 16.9154C20.9126 16.8853 21.4918 16.5269 21.6614 15.1119C21.753 14.3522 21.3894 13.9247 21.168 13.7903C21.7658 11.9925 23.0074 6.43095 18.8717 5.85623C18.4461 5.10871 17.3562 4.73047 15.9398 4.73047C10.2733 4.83479 9.58977 9.00951 10.832 13.7903C10.6112 13.9247 10.2477 14.3522 10.3386 15.1119C10.5088 16.5269 11.0874 16.8853 11.4547 16.9154C11.5955 18.2351 12.4659 19.7986 12.9344 20.0437C12.9344 20.9865 12.9696 21.7065 12.8762 22.7381C12.0691 24.9077 7.92449 25.0773 5.53345 27.1695C8.03329 29.6866 12.0845 31.4869 16.3597 31.4869C20.6349 31.4869 25.6602 28.1116 26.4966 27.1906C24.1203 25.0793 19.9661 24.9154 19.1571 22.7381Z" fill="white"/>
</g>
<defs>
<clipPath id="clip0_49_1197">
<rect width="32" height="32" fill="white"/>
</clipPath>
</defs>
</svg>
