<svg width="32" height="32" viewBox="0 0 32 32" fill="none" xmlns="http://www.w3.org/2000/svg">
<g opacity="0.9">
<path d="M21.0012 28C21.0012 28.2652 20.8959 28.5196 20.7083 28.7071C20.5208 28.8946 20.2664 29 20.0012 29H12.0012C11.736 29 11.4816 28.8946 11.2941 28.7071C11.1066 28.5196 11.0012 28.2652 11.0012 28C11.0012 27.7348 11.1066 27.4804 11.2941 27.2929C11.4816 27.1054 11.736 27 12.0012 27H20.0012C20.2664 27 20.5208 27.1054 20.7083 27.2929C20.8959 27.4804 21.0012 27.7348 21.0012 28ZM27.7325 24C27.559 24.3056 27.3071 24.5595 27.0027 24.7353C26.6984 24.911 26.3527 25.0024 26.0012 25H6.00121C5.64963 24.9995 5.30439 24.9064 5.00028 24.73C4.69617 24.5535 4.44394 24.3 4.26902 23.9951C4.0941 23.6901 4.00266 23.3444 4.00392 22.9928C4.00518 22.6412 4.0991 22.2962 4.27621 21.9925C4.96996 20.7975 6.00121 17.4175 6.00121 13C6.00121 10.3478 7.05478 7.8043 8.93014 5.92893C10.8055 4.05357 13.349 3 16.0012 3C18.6534 3 21.1969 4.05357 23.0723 5.92893C24.9476 7.8043 26.0012 10.3478 26.0012 13C26.0012 17.4163 27.0337 20.7975 27.7275 21.9925C27.9063 22.2966 28.001 22.6429 28.0016 22.9957C28.0023 23.3486 27.9089 23.6952 27.7312 24H27.7325ZM26.0012 23C25.035 21.3412 24.0012 17.5063 24.0012 13C24.0012 10.8783 23.1584 8.84344 21.6581 7.34315C20.1578 5.84285 18.1229 5 16.0012 5C13.8795 5 11.8446 5.84285 10.3444 7.34315C8.84406 8.84344 8.00121 10.8783 8.00121 13C8.00121 17.5075 6.96621 21.3425 6.00121 23H26.0012Z" fill="white"/>
</g>
</svg>
