<svg width="20" height="20" viewBox="0 0 20 20" fill="none" xmlns="http://www.w3.org/2000/svg">
<path d="M16.3797 9.55805C16.4378 9.6161 16.4839 9.68503 16.5153 9.7609C16.5468 9.83678 16.563 9.91811 16.563 10.0002C16.563 10.0824 16.5468 10.1637 16.5153 10.2396C16.4839 10.3155 16.4378 10.3844 16.3797 10.4424L9.96949 16.8487C9.14888 17.6692 8.03592 18.1301 6.87547 18.13C5.71501 18.13 4.60212 17.6689 3.7816 16.8483C2.96109 16.0277 2.50017 14.9147 2.50024 13.7543C2.50032 12.5938 2.96138 11.4809 3.78199 10.6604L11.5367 2.79165C12.1225 2.20517 12.9174 1.87544 13.7464 1.875C14.5753 1.87456 15.3705 2.20345 15.957 2.78931C16.5435 3.37516 16.8732 4.17001 16.8736 4.99898C16.8741 5.82795 16.5452 6.62314 15.9593 7.20962L8.20309 15.0784C7.85085 15.4306 7.37311 15.6285 6.87496 15.6285C6.37682 15.6285 5.89908 15.4306 5.54684 15.0784C5.1946 14.7261 4.99671 14.2484 4.99671 13.7502C4.99671 13.2521 5.1946 12.7744 5.54684 12.4221L12.0547 5.81118C12.1117 5.75037 12.1803 5.70157 12.2564 5.66766C12.3326 5.63376 12.4147 5.61543 12.4981 5.61375C12.5814 5.61207 12.6642 5.62708 12.7417 5.6579C12.8191 5.68871 12.8896 5.73471 12.949 5.79318C13.0085 5.85165 13.0556 5.92141 13.0876 5.99836C13.1197 6.07531 13.136 6.1579 13.1356 6.24125C13.1353 6.32461 13.1183 6.40705 13.0856 6.48373C13.0529 6.56041 13.0052 6.62977 12.9453 6.68774L6.43668 13.3057C6.37841 13.3635 6.33209 13.4322 6.30038 13.508C6.26866 13.5837 6.25217 13.6649 6.25184 13.747C6.25152 13.8291 6.26736 13.9104 6.29847 13.9864C6.32958 14.0623 6.37535 14.1314 6.43317 14.1897C6.49098 14.248 6.5597 14.2943 6.63541 14.326C6.71113 14.3577 6.79234 14.3742 6.87443 14.3745C6.95651 14.3749 7.03786 14.359 7.11382 14.3279C7.18979 14.2968 7.25888 14.251 7.31715 14.1932L15.0726 6.32837C15.4249 5.97685 15.623 5.49981 15.6235 5.00218C15.6241 4.50455 15.4269 4.02709 15.0754 3.67485C14.7238 3.32261 14.2468 3.12444 13.7492 3.12392C13.2515 3.12341 12.7741 3.3206 12.4218 3.67212L4.66871 11.5377C4.37827 11.8277 4.14778 12.1721 3.99041 12.5511C3.83305 12.9302 3.75188 13.3365 3.75156 13.747C3.75123 14.1574 3.83175 14.5639 3.98851 14.9432C4.14527 15.3225 4.37521 15.6672 4.6652 15.9577C4.95518 16.2481 5.29954 16.4786 5.6786 16.636C6.05766 16.7933 6.464 16.8745 6.87443 16.8748C7.28486 16.8751 7.69133 16.7946 8.07064 16.6379C8.44995 16.4811 8.79467 16.2512 9.08512 15.9612L15.4961 9.55493C15.6137 9.43822 15.7728 9.37299 15.9385 9.37358C16.1042 9.37416 16.2629 9.44052 16.3797 9.55805Z" fill="#0E20BC"/>
</svg>
