<svg width="18" height="18" viewBox="0 0 18 18" fill="none" xmlns="http://www.w3.org/2000/svg">
<path fill-rule="evenodd" clip-rule="evenodd" d="M11.9637 10.27L17.5232 16L16.0775 17.49L10.5181 11.76C9.4799 12.53 8.22829 13 6.86026 13C3.3771 13 0.553711 10.09 0.553711 6.5C0.553711 2.91 3.3771 0 6.86026 0C10.3434 0 13.1668 2.91 13.1668 6.5C13.1668 7.91 12.7108 9.2 11.9637 10.27ZM6.86026 2C4.44437 2 2.49419 4.01 2.49419 6.5C2.49419 8.99 4.44437 11 6.86026 11C9.27615 11 11.2263 8.99 11.2263 6.5C11.2263 4.01 9.27615 2 6.86026 2Z" fill="#3E4DCE"/>
</svg>
