<svg width="64" height="64" viewBox="0 0 64 64" fill="none" xmlns="http://www.w3.org/2000/svg">
<path d="M61.9998 31.9998C62.0123 36.7628 60.4671 41.3992 57.5998 45.2023C57.4419 45.4124 57.2441 45.5894 57.0178 45.7231C56.7915 45.8568 56.5411 45.9446 56.2808 45.9815C56.0206 46.0184 55.7556 46.0037 55.5011 45.9382C55.2465 45.8727 55.0074 45.7577 54.7973 45.5998C54.5872 45.4419 54.4102 45.2442 54.2765 45.0179C54.1428 44.7916 54.055 44.5411 54.0181 44.2809C53.9812 44.0207 53.9959 43.7557 54.0614 43.5012C54.1269 43.2466 54.2419 43.0074 54.3998 42.7973C56.7468 39.6879 58.0112 35.8956 57.9998 31.9998C57.9998 27.2259 56.1033 22.6476 52.7277 19.2719C49.352 15.8962 44.7737 13.9998 39.9998 13.9998C35.2259 13.9998 30.6475 15.8962 27.2718 19.2719C23.8962 22.6476 21.9998 27.2259 21.9998 31.9998C21.9998 32.5303 21.7891 33.039 21.414 33.414C21.0389 33.7891 20.5302 33.9998 19.9998 33.9998C19.4693 33.9998 18.9606 33.7891 18.5856 33.414C18.2105 33.039 17.9998 32.5303 17.9998 31.9998C17.9988 29.9815 18.2756 27.9727 18.8223 26.0298C18.5498 25.9998 18.2748 25.9998 17.9998 25.9998C14.8172 25.9998 11.7649 27.2641 9.51449 29.5145C7.26405 31.765 5.99977 34.8172 5.99977 37.9998C5.99977 41.1824 7.26405 44.2347 9.51449 46.4851C11.7649 48.7355 14.8172 49.9998 17.9998 49.9998H23.9998C24.5302 49.9998 25.0389 50.2105 25.414 50.5856C25.7891 50.9607 25.9998 51.4694 25.9998 51.9998C25.9998 52.5303 25.7891 53.039 25.414 53.414C25.0389 53.7891 24.5302 53.9998 23.9998 53.9998H17.9998C15.8002 54.0003 13.6242 53.5473 11.6075 52.6691C9.59093 51.7908 7.77705 50.5062 6.2792 48.8954C4.78135 47.2847 3.63171 45.3824 2.90206 43.3074C2.17242 41.2324 1.87845 39.0292 2.03852 36.8355C2.19858 34.6417 2.80925 32.5046 3.83237 30.5574C4.85549 28.6103 6.2691 26.8951 7.9849 25.5188C9.7007 24.1425 11.6818 23.1348 13.8046 22.5586C15.9273 21.9824 18.1461 21.85 20.3223 22.1698C22.5383 17.7377 26.1856 14.1835 30.6736 12.0829C35.1615 9.9823 40.2272 9.45832 45.0501 10.5958C49.873 11.7334 54.1706 14.4658 57.2469 18.3504C60.3231 22.2351 61.9979 27.0446 61.9998 31.9998ZM39.4148 30.5848C39.229 30.3989 39.0084 30.2514 38.7657 30.1507C38.5229 30.0501 38.2626 29.9983 37.9998 29.9983C37.7369 29.9983 37.4767 30.0501 37.2339 30.1507C36.9911 30.2514 36.7705 30.3989 36.5848 30.5848L28.5848 38.5848C28.3989 38.7706 28.2515 38.9912 28.151 39.234C28.0504 39.4768 27.9987 39.737 27.9987 39.9998C27.9987 40.2626 28.0504 40.5228 28.151 40.7656C28.2515 41.0084 28.3989 41.229 28.5848 41.4148C28.96 41.7901 29.469 42.0009 29.9998 42.0009C30.2626 42.0009 30.5228 41.9492 30.7656 41.8486C31.0083 41.748 31.229 41.6006 31.4148 41.4148L35.9998 36.8273V51.9998C35.9998 52.5303 36.2105 53.039 36.5856 53.414C36.9606 53.7891 37.4693 53.9998 37.9998 53.9998C38.5302 53.9998 39.0389 53.7891 39.414 53.414C39.7891 53.039 39.9998 52.5303 39.9998 51.9998V36.8273L44.5848 41.4148C44.7706 41.6006 44.9912 41.748 45.234 41.8486C45.4768 41.9492 45.737 42.0009 45.9998 42.0009C46.2626 42.0009 46.5228 41.9492 46.7656 41.8486C47.0084 41.748 47.229 41.6006 47.4148 41.4148C47.6006 41.229 47.748 41.0084 47.8486 40.7656C47.9491 40.5228 48.0009 40.2626 48.0009 39.9998C48.0009 39.737 47.9491 39.4768 47.8486 39.234C47.748 38.9912 47.6006 38.7706 47.4148 38.5848L39.4148 30.5848Z" fill="#3E4DCE"/>
</svg>
