<svg width="18" height="18" viewBox="0 0 18 18" fill="none" xmlns="http://www.w3.org/2000/svg">
<path d="M15.0229 7.14828L9.39792 12.7733C9.34567 12.8256 9.28364 12.8671 9.21535 12.8954C9.14706 12.9237 9.07387 12.9383 8.99995 12.9383C8.92603 12.9383 8.85283 12.9237 8.78454 12.8954C8.71626 12.8671 8.65422 12.8256 8.60198 12.7733L2.97698 7.14828C2.87143 7.04273 2.81213 6.89958 2.81213 6.75031C2.81213 6.60105 2.87143 6.45789 2.97698 6.35234C3.08253 6.2468 3.22568 6.1875 3.37495 6.1875C3.52421 6.1875 3.66737 6.2468 3.77292 6.35234L8.99995 11.5801L14.227 6.35234C14.2792 6.30008 14.3413 6.25863 14.4096 6.23034C14.4779 6.20206 14.551 6.1875 14.6249 6.1875C14.6989 6.1875 14.772 6.20206 14.8403 6.23034C14.9086 6.25863 14.9707 6.30008 15.0229 6.35234C15.0752 6.40461 15.1166 6.46665 15.1449 6.53493C15.1732 6.60322 15.1878 6.6764 15.1878 6.75031C15.1878 6.82422 15.1732 6.89741 15.1449 6.96569C15.1166 7.03398 15.0752 7.09602 15.0229 7.14828Z" fill="#3E4DCE"/>
</svg>
