<svg width="10" height="6" viewBox="0 0 10 6" fill="none" xmlns="http://www.w3.org/2000/svg">
<path fill-rule="evenodd" clip-rule="evenodd" d="M0.181004 0.45251C-0.0604036 0.693918 -0.0604039 1.08532 0.181004 1.32673L4.38898 5.53471C4.39311 5.53907 4.3973 5.54339 4.40158 5.54766C4.52233 5.66841 4.6806 5.72877 4.83887 5.72872C4.99713 5.72877 5.15541 5.66841 5.27616 5.54766C5.28043 5.54339 5.28463 5.53907 5.28875 5.53471L9.49673 1.32673C9.73814 1.08532 9.73814 0.693918 9.49673 0.45251C9.25532 0.211102 8.86392 0.211102 8.62251 0.45251L4.83887 4.23616L1.05522 0.45251C0.813812 0.211102 0.422413 0.211102 0.181004 0.45251Z" fill="white"/>
</svg>
