<svg width="24" height="24" viewBox="0 0 24 24" fill="none" xmlns="http://www.w3.org/2000/svg">
<g opacity="0.7" clip-path="url(#clip0_63_1975)">
<path d="M5.75002 20.627L1.5 16.8363L2.49832 15.7167L6.72915 19.4904L12.4971 13.9068C12.7657 13.6467 13.1246 13.5008 13.4984 13.4996C13.8723 13.4985 14.2321 13.6421 14.5023 13.9005L17.22 16.4987L21.4043 12.0186L22.5 13.0428L18.3141 17.5247C18.1789 17.6694 18.0163 17.7858 17.8358 17.8673C17.6553 17.9487 17.4604 17.9935 17.2624 17.9991C17.0645 18.0047 16.8673 17.9709 16.6825 17.8998C16.4977 17.8286 16.3288 17.7215 16.1857 17.5847L13.5033 15.0204L7.7538 20.5858C7.48672 20.8444 7.13168 20.9924 6.76 21C6.38832 21.0077 6.02751 20.8744 5.75002 20.627Z" fill="white"/>
<path d="M22.5 8.25H19.5L21 6L22.5 8.25Z" fill="white"/>
<path d="M16.5 3H13.5V4.5H16.5V6H14.25V7.5H16.5V9H13.5V10.5H16.5C16.8977 10.4995 17.2789 10.3413 17.5601 10.0601C17.8413 9.77888 17.9995 9.39766 18 9V4.5C17.9995 4.10232 17.8414 3.72105 17.5602 3.43984C17.279 3.15864 16.8977 3.00046 16.5 3Z" fill="white"/>
<path d="M12 10.5H7.5V7.5C7.5004 7.1023 7.65856 6.721 7.93978 6.43978C8.221 6.15856 8.6023 6.0004 9 6H10.5V4.5H7.5V3H10.5C10.8977 3.00046 11.2789 3.15864 11.5602 3.43984C11.8414 3.72105 11.9995 4.10232 12 4.5V6C11.9995 6.39768 11.8414 6.77895 11.5602 7.06016C11.2789 7.34136 10.8977 7.49954 10.5 7.5H9V9H12V10.5Z" fill="white"/>
<path d="M4.5 9V3H3V3.75H1.5V5.25H3V9H1.5V10.5H6V9H4.5Z" fill="white"/>
</g>
<defs>
<clipPath id="clip0_63_1975">
<rect width="24" height="24" fill="white"/>
</clipPath>
</defs>
</svg>
