<svg width="137" height="102" viewBox="0 0 137 102" fill="none" xmlns="http://www.w3.org/2000/svg">
<g clip-path="url(#clip0_63_2256)">
<g style="mix-blend-mode:multiply">
<path d="M23.1922 1.70342C22.8156 1.44833 22.406 1.2616 21.9809 1.14392L21.825 0.0587581L21.0782 0.0298674L20.3313 0.000976562L20.0918 1.07064C19.6583 1.15449 19.2361 1.30952 18.8405 1.5343L17.9651 0.877565L17.4164 1.38703L16.8677 1.89649L17.4523 2.82311C17.1979 3.20081 17.0118 3.61162 16.8944 4.03794L15.8125 4.19437L15.7837 4.94342L15.7549 5.69246L16.8214 5.93275C16.905 6.36752 17.0595 6.79102 17.2836 7.18774L16.6289 8.06573L17.1368 8.61607L17.6448 9.1664L18.5686 8.58013C18.9452 8.83522 19.3548 9.02195 19.7798 9.13963L19.9358 10.2248L20.6826 10.2537L21.4294 10.2826L21.669 9.21291C22.1025 9.12906 22.5247 8.97403 22.9203 8.74925L23.7957 9.40599L24.3444 8.89652L24.893 8.38706L24.3085 7.46044C24.5628 7.08274 24.749 6.67193 24.8664 6.24561L25.9483 6.08918L25.9771 5.34014L26.0059 4.59109L24.9394 4.3508C24.8558 3.91603 24.7013 3.49253 24.4771 3.09581L25.1319 2.21782L24.624 1.66748L24.116 1.11715L23.1922 1.70342ZM22.7847 7.20535C21.6479 8.26022 19.874 8.19116 18.8222 7.05103C17.7705 5.9109 17.8394 4.13166 18.9761 3.07679C20.1128 2.02192 21.8868 2.09098 22.9385 3.23111C23.9903 4.37124 23.9214 6.15049 22.7847 7.20535Z" fill="#E6E6E6"/>
</g>
<g style="mix-blend-mode:multiply">
<path d="M106.443 19.9153C106.066 19.6602 105.656 19.4735 105.231 19.3558L105.075 18.2707L104.329 18.2418L103.582 18.2129L103.342 19.2826C102.909 19.3664 102.487 19.5214 102.091 19.7462L101.216 19.0895L100.667 19.5989L100.118 20.1084L100.703 21.035C100.448 21.4127 100.262 21.8235 100.145 22.2499L99.063 22.4063L99.0342 23.1553L99.0054 23.9044L100.072 24.1447C100.155 24.5794 100.31 25.0029 100.534 25.3997L99.8794 26.2776L100.387 26.828L100.895 27.3783L101.819 26.792C102.196 27.0471 102.605 27.2339 103.03 27.3515L103.186 28.4367L103.933 28.4656L104.68 28.4945L104.92 27.4248C105.353 27.341 105.775 27.1859 106.171 26.9612L107.046 27.6179L107.595 27.1084L108.144 26.599L107.559 25.6724C107.813 25.2947 108 24.8838 108.117 24.4575L109.199 24.3011L109.228 23.5521L109.256 22.803L108.19 22.5627C108.106 22.1279 107.952 21.7044 107.728 21.3077L108.382 20.4297L107.874 19.8794L107.367 19.3291L106.443 19.9153ZM106.034 25.4173C104.898 26.4721 103.124 26.4031 102.072 25.2629C101.02 24.1228 101.089 22.3436 102.226 21.2887C103.363 20.2338 105.137 20.3029 106.188 21.443C107.24 22.5832 107.171 24.3624 106.034 25.4173Z" fill="#E6E6E6"/>
</g>
<g style="mix-blend-mode:multiply">
<path d="M40.7042 22.444C39.8858 21.6611 38.9577 21.0312 37.9615 20.5654L38.0275 17.8356L36.2058 17.4529L34.384 17.0703L33.3527 19.5972C32.2539 19.6233 31.1523 19.8262 30.0893 20.2145L28.2114 18.2372L26.6531 19.259L25.0948 20.2807L26.1473 22.7991C25.3667 23.6201 24.7386 24.5509 24.2742 25.5501L21.5525 25.4839L21.171 27.311L20.7896 29.1382L23.3089 30.1726C23.3349 31.2747 23.5373 32.3796 23.9244 33.4458L21.953 35.3293L22.9717 36.8922L23.9904 38.4551L26.5013 37.3996C27.3198 38.1824 28.2479 38.8124 29.2441 39.2782L29.1781 42.008L30.9998 42.3906L32.8216 42.7733L33.8529 40.2464C34.9517 40.2203 36.0533 40.0174 37.1163 39.6291L38.9942 41.6063L40.5525 40.5846L42.1108 39.5629L41.0583 37.0444C41.8389 36.2235 42.467 35.2927 42.9314 34.2935L45.6531 34.3597L46.0346 32.5325L46.416 30.7054L43.8967 29.6709C43.8707 28.5688 43.6683 27.464 43.2812 26.3978L45.2526 24.5143L44.2339 22.9513L43.2152 21.3884L40.7042 22.444ZM37.424 35.7838C34.1958 37.9006 29.868 36.9916 27.7582 33.7537C25.6477 30.5158 26.554 26.1751 29.7823 24.0591C33.0105 21.9423 37.3383 22.8513 39.4481 26.0892C41.5586 29.3271 40.6523 33.6677 37.424 35.7838Z" fill="#E6E6E6"/>
</g>
<g style="mix-blend-mode:multiply">
<path d="M54.72 3.84694C54.2641 3.41076 53.7477 3.05984 53.1927 2.80053L53.2292 1.28059L52.2147 1.06779L51.2002 0.85498L50.6262 2.26217C50.0143 2.27627 49.401 2.38972 48.8087 2.60604L47.7633 1.50538L46.8956 2.07403L46.028 2.64269L46.6139 4.04495C46.179 4.50227 45.8292 5.02019 45.5706 5.57686L44.0552 5.54022L43.843 6.55774L43.6309 7.57526L45.0339 8.15096C45.0479 8.76472 45.161 9.37988 45.3767 9.9739L44.2793 11.0224L44.8463 11.8927L45.4132 12.7629L46.8113 12.1752C47.2673 12.6114 47.7837 12.9623 48.3387 13.2216L48.3022 14.7416L49.3167 14.9544L50.3312 15.1672L50.9051 13.76C51.5171 13.7459 52.1304 13.6325 52.7227 13.4161L53.7681 14.5168L54.6357 13.9481L55.5034 13.3795L54.9174 11.9772C55.3523 11.5199 55.7022 11.002 55.9607 10.4453L57.4762 10.482L57.6883 9.46444L57.9005 8.44692L56.4975 7.87121C56.4834 7.25746 56.3703 6.6423 56.1547 6.04828L57.252 4.99975L56.6851 4.1295L56.1181 3.25926L54.72 3.84694ZM52.8941 11.2754C51.0962 12.4543 48.6865 11.9483 47.5118 10.1451C46.3364 8.34192 46.8408 5.92496 48.6387 4.74678C50.4365 3.5679 52.8463 4.07384 54.021 5.87705C55.1964 7.68025 54.6919 10.0972 52.8941 11.2754Z" fill="#E6E6E6"/>
</g>
<g style="mix-blend-mode:multiply">
<path d="M127.036 11.78C126.58 11.3439 126.064 10.9929 125.509 10.7336L125.545 9.2137L124.531 9.00089L123.516 8.78809L122.942 10.1953C122.33 10.2094 121.717 10.3228 121.125 10.5391L120.079 9.43848L119.212 10.0071L118.344 10.5758L118.93 11.9781C118.495 12.4354 118.145 12.9533 117.887 13.51L116.371 13.4733L116.159 14.4908L115.947 15.5084L117.35 16.0841C117.364 16.6978 117.477 17.313 117.693 17.907L116.595 18.9555L117.162 19.8258L117.729 20.696L119.127 20.1083C119.583 20.5445 120.1 20.8954 120.655 21.1548L120.618 22.6747L121.633 22.8875L122.647 23.1003L123.221 21.6931C123.833 21.679 124.446 21.5656 125.039 21.3492L126.084 22.4499L126.952 21.8813L127.819 21.3126L127.233 19.9103C127.668 19.453 128.018 18.9351 128.277 18.3784L129.792 18.4151L130.004 17.3975L130.216 16.38L128.813 15.8043C128.799 15.1906 128.686 14.5754 128.471 13.9814L129.568 12.9329L129.001 12.0626L128.434 11.1924L127.036 11.78ZM125.209 19.2085C123.411 20.3874 121.002 19.8814 119.827 18.0782C118.652 16.275 119.156 13.8581 120.954 12.6799C122.752 11.501 125.162 12.0069 126.336 13.8102C127.512 15.6134 127.007 18.0303 125.209 19.2085Z" fill="#E6E6E6"/>
</g>
<path d="M119.008 32.8081H20.1274C17.612 32.8081 15.5728 34.8534 15.5728 37.3764V97.1282C15.5728 99.6512 17.612 101.696 20.1274 101.696H119.008C121.523 101.696 123.562 99.6512 123.562 97.1282V37.3764C123.562 34.8534 121.523 32.8081 119.008 32.8081Z" fill="#68137B"/>
<path d="M119.366 39.286V95.2545C119.366 96.451 118.522 97.422 117.481 97.422H21.9295C20.7365 97.422 19.7705 96.451 19.7705 95.2545V39.286C19.7705 38.0894 20.7372 37.1191 21.9295 37.1191H117.481C118.085 37.1191 118.622 37.4461 118.967 37.9542C119.217 38.3213 119.366 38.7835 119.366 39.2852V39.286Z" fill="#E6E6E6"/>
<path d="M119.366 39.2862V95.2547C119.366 96.4512 118.522 97.4222 117.481 97.4222H22.6528V97.4004H22.6627V37.1589H22.6528V37.1201H117.481C118.085 37.1201 118.623 37.4471 118.967 37.9551C119.217 38.3223 119.366 38.7845 119.366 39.2862Z" fill="#E6E6E6"/>
<path d="M85.4835 29.2344L85.3318 29.3225L85.2875 29.2464C85.1259 28.9666 84.9692 28.6777 84.8217 28.3874L84.7817 28.3092L84.9383 28.2289L84.9784 28.3071C85.1245 28.5946 85.2798 28.8807 85.4393 29.1576L85.4835 29.2337V29.2344ZM84.599 27.5144L84.4381 27.5855L84.4023 27.5052C84.2695 27.205 84.1451 26.9006 84.0327 26.6004L84.0018 26.518L84.1662 26.456L84.1971 26.5384C84.3088 26.8351 84.4318 27.1367 84.5632 27.4333L84.599 27.5136V27.5144ZM93.3901 19.494C93.2763 19.5821 93.1498 19.661 93.0149 19.73L92.9369 19.7702L92.8569 19.6131L92.9348 19.5729C93.0599 19.5088 93.1772 19.4348 93.2826 19.3538C93.4217 19.2467 93.5447 19.124 93.6486 18.9887L93.702 18.919L93.8411 19.0261L93.7877 19.0959C93.6746 19.2431 93.5405 19.377 93.3894 19.4933L93.3901 19.494ZM92.1466 20.0182L92.0588 20.0239C91.73 20.0436 91.4061 19.9436 91.0955 19.7258L91.0232 19.6751L91.1237 19.5306L91.196 19.5814C91.4735 19.7758 91.7602 19.8653 92.0482 19.8477L92.136 19.8421L92.1466 20.0182ZM94.1812 18.27L94.0091 18.2341L94.0273 18.1481C94.0877 17.8571 94.0962 17.5421 94.0526 17.2109L94.0414 17.1235L94.2156 17.1003L94.2275 17.1877C94.2739 17.5386 94.2648 17.874 94.2001 18.184L94.1826 18.27H94.1812ZM83.9119 25.7083L83.744 25.7598L83.718 25.6752C83.621 25.3581 83.536 25.0403 83.4651 24.7303L83.4454 24.6443L83.6168 24.6048L83.6365 24.6908C83.7067 24.9966 83.7911 25.3109 83.8866 25.6238L83.9126 25.7083H83.9119ZM90.6052 18.9761L90.4597 19.0747L90.4106 19.0014C90.2384 18.7449 90.0867 18.449 89.9595 18.1213L89.9279 18.0389L90.0916 17.9748L90.1232 18.0572C90.2454 18.3722 90.3909 18.6569 90.556 18.9028L90.6052 18.9761ZM94.0027 16.3111L93.8397 16.3766L93.8067 16.2949C93.6908 16.0045 93.5404 15.722 93.3606 15.4549L93.3114 15.3816L93.4568 15.283L93.506 15.3563C93.6929 15.6332 93.8489 15.927 93.9697 16.2286L94.0027 16.3104V16.3111ZM83.4686 23.8304L83.2951 23.8565L83.2817 23.7691C83.2325 23.4415 83.1974 23.1138 83.1777 22.7953L83.1721 22.7072L83.3477 22.6959L83.3534 22.784C83.373 23.0976 83.4075 23.4203 83.4559 23.7423L83.4693 23.8297L83.4686 23.8304ZM89.8724 17.2257L89.7003 17.2616L89.682 17.1757C89.6167 16.8635 89.571 16.5358 89.5471 16.2018L89.5408 16.1138L89.7157 16.1011L89.722 16.1892C89.7452 16.5154 89.7895 16.8346 89.8534 17.139L89.8717 17.225L89.8724 17.2257ZM92.814 14.7869L92.7508 14.7256C92.6608 14.6389 92.5674 14.5551 92.4726 14.4783C92.3229 14.3556 92.1634 14.2464 91.999 14.1534L91.9225 14.1104L92.0089 13.9568L92.0855 13.9998C92.2583 14.0977 92.4255 14.2126 92.5836 14.3409C92.6819 14.4212 92.7796 14.5079 92.873 14.5981L92.9362 14.6594L92.814 14.7862V14.7869ZM83.3358 21.9095L83.1602 21.9032L83.163 21.8151C83.1742 21.4853 83.203 21.157 83.248 20.8385L83.2599 20.7511L83.4342 20.7757L83.4215 20.8631C83.3773 21.1753 83.3498 21.498 83.3386 21.8215L83.3358 21.9095ZM89.708 15.3168L89.5324 15.3083L89.5366 15.2203C89.552 14.8982 89.5865 14.5699 89.6391 14.2443L89.6532 14.1576L89.8267 14.1858L89.8127 14.2725C89.7614 14.5917 89.7277 14.913 89.7122 15.2287L89.708 15.3168ZM83.5873 20.0063L83.4173 19.9619L83.4391 19.8766C83.5213 19.5602 83.6224 19.2459 83.7405 18.9429L83.7721 18.8612L83.9358 18.9253L83.9042 19.0071C83.789 19.303 83.6899 19.611 83.6098 19.921L83.588 20.0063H83.5873ZM91.2087 13.8321L91.123 13.8124C90.8244 13.7426 90.5082 13.7123 90.1843 13.7222L90.0965 13.725L90.0909 13.5488L90.1787 13.546C90.518 13.5354 90.8489 13.5671 91.163 13.6404L91.2487 13.6602L91.2087 13.8321ZM84.2632 18.2122L84.1079 18.1298L84.1487 18.0523C84.3004 17.7648 84.4683 17.4808 84.6475 17.2095L84.6959 17.1362L84.8428 17.2335L84.7943 17.3067C84.618 17.5738 84.4536 17.8521 84.3039 18.1347L84.2632 18.2122ZM89.9932 13.4171L89.8239 13.3705L89.8471 13.2853C89.9314 12.9738 90.0333 12.6603 90.1506 12.3537L90.1822 12.2713L90.3466 12.334L90.315 12.4164C90.2005 12.718 90.1 13.0253 90.0171 13.3311L89.9939 13.4163L89.9932 13.4171ZM89.3307 13.8349L89.2457 13.8561C88.9485 13.93 88.6457 14.035 88.345 14.1675L88.2649 14.2027L88.194 14.0414L88.2741 14.0061C88.5839 13.8694 88.8965 13.7616 89.2029 13.6848L89.2879 13.6637L89.33 13.8349H89.3307ZM85.3079 16.5986L85.1716 16.4872L85.2271 16.4189C85.4336 16.1638 85.6542 15.9193 85.8819 15.6903L85.9437 15.6283L86.068 15.753L86.0062 15.8157C85.7828 16.0398 85.5664 16.2808 85.3634 16.5309L85.3079 16.5993V16.5986ZM87.575 14.5699L87.5006 14.6164C87.2357 14.7813 86.9729 14.968 86.7193 15.1723L86.6512 15.2273L86.5409 15.0899L86.609 15.0349C86.8676 14.8264 87.1366 14.6347 87.4071 14.4663L87.4816 14.4198L87.5743 14.5692L87.575 14.5699ZM90.6614 11.616L90.5054 11.5349L90.5454 11.4567C90.6923 11.1713 90.8616 10.8881 91.0492 10.6139L91.0991 10.5414L91.2438 10.6407L91.1939 10.7133C91.0105 10.9811 90.8447 11.258 90.7014 11.537L90.6614 11.6153V11.616ZM97.4172 6.19647L97.3357 6.22959C97.0385 6.34938 96.7406 6.47833 96.4504 6.61362L96.3711 6.65097L96.2973 6.49101L96.3767 6.45437C96.6696 6.31837 96.9703 6.18801 97.2703 6.06681L97.3518 6.03369L97.4172 6.19717V6.19647ZM95.6629 7.00118L95.5849 7.04205C95.2975 7.19426 95.0151 7.35421 94.7453 7.51769L94.6702 7.56349L94.5795 7.4127L94.6547 7.3669C94.9273 7.20201 95.2125 7.04064 95.5027 6.88632L95.58 6.84545L95.6622 7.00118H95.6629ZM91.7229 10.0199L91.5901 9.90506L91.6478 9.83812C91.855 9.59783 92.0819 9.35895 92.3222 9.12853L92.3854 9.06793L92.507 9.19547L92.4438 9.25607C92.2077 9.48227 91.9843 9.71692 91.7812 9.95368L91.7236 10.0206L91.7229 10.0199ZM94.0091 7.99192L93.9367 8.04195C93.6697 8.22798 93.414 8.41965 93.166 8.62047L93.0978 8.67544L92.9875 8.53803L93.0557 8.48236C93.3065 8.27872 93.5657 8.08494 93.8369 7.8968L93.9093 7.84677L94.0098 7.99122L94.0091 7.99192Z" fill="#3F9896"/>
<path d="M101.592 6.74561L101.851 5.42861C101.851 5.42861 105.398 2.82985 105.436 2.77277C105.473 2.7157 106.855 0.612305 106.855 0.612305L104.329 1.88279L100.665 4.76906L101.591 6.74631L101.592 6.74561Z" fill="#F427C0"/>
<path d="M98.6333 3.33086L106.856 0.612305L100.665 4.76905L98.6333 3.33086Z" fill="#80A8FB"/>
<path d="M101.851 5.42861L104.001 6.96828L106.856 0.612305L101.851 5.42861Z" fill="#80A8FB"/>
<path d="M136.872 101.562H0.305664V102H136.872V101.562Z" fill="#3D0E53"/>
<g style="mix-blend-mode:multiply">
<path d="M34.4778 57.3735L36.4808 61.445L40.9603 62.0975L37.7187 65.2664L38.4838 69.7409L34.4778 67.6284L30.4711 69.7409L31.2362 65.2664L27.9946 62.0975L32.4741 61.445L34.4778 57.3735Z" fill="#DCF4FF"/>
<path d="M52.023 57.3735L54.026 61.445L58.5055 62.0975L55.2639 65.2664L56.029 69.7409L52.023 67.6284L48.0163 69.7409L48.7814 65.2664L45.5405 62.0975L50.0193 61.445L52.023 57.3735Z" fill="#DCF4FF"/>
<path d="M69.5679 57.3735L71.5709 61.445L76.0504 62.0975L72.8088 65.2664L73.5739 69.7409L69.5679 67.6284L65.5613 69.7409L66.3263 65.2664L63.0854 62.0975L67.5643 61.445L69.5679 57.3735Z" fill="#DCF4FF"/>
<path d="M87.1129 57.3735L89.1159 61.445L93.5954 62.0975L90.3538 65.2664L91.1196 69.7409L87.1129 67.6284L83.1062 69.7409L83.8713 65.2664L80.6304 62.0975L85.1092 61.445L87.1129 57.3735Z" fill="#DCF4FF"/>
<path d="M104.658 57.3735L106.661 61.445L111.14 62.0975L107.899 65.2664L108.664 69.7409L104.658 67.6284L100.651 69.7409L101.416 65.2664L98.1753 62.0975L102.655 61.445L104.658 57.3735Z" fill="#DCF4FF"/>
</g>
<path d="M33.6026 57.3735L35.6056 61.445L40.0851 62.0975L36.8442 65.2664L37.6093 69.7409L33.6026 67.6284L29.5959 69.7409L30.361 65.2664L27.1201 62.0975L31.5996 61.445L33.6026 57.3735Z" fill="#80A8FB"/>
<path d="M51.1475 57.3735L53.1512 61.445L57.63 62.0975L54.3891 65.2664L55.1542 69.7409L51.1475 67.6284L47.1409 69.7409L47.9066 65.2664L44.665 62.0975L49.1445 61.445L51.1475 57.3735Z" fill="#80A8FB"/>
<path d="M68.6925 57.3735L70.6962 61.445L75.175 62.0975L71.9341 65.2664L72.6992 69.7409L68.6925 67.6284L64.6865 69.7409L65.4516 65.2664L62.21 62.0975L66.6895 61.445L68.6925 57.3735Z" fill="#80A8FB"/>
<path d="M86.2374 57.3735L88.2411 61.445L92.7199 62.0975L89.479 65.2664L90.2441 69.7409L86.2374 67.6284L82.2314 69.7409L82.9965 65.2664L79.7549 62.0975L84.2344 61.445L86.2374 57.3735Z" fill="#80A8FB"/>
<path d="M103.782 57.3735L105.786 61.445L110.266 62.0975L107.024 65.2664L107.789 69.7409L103.782 67.6284L99.7763 69.7409L100.541 65.2664L97.2998 62.0975L101.779 61.445L103.782 57.3735Z" fill="#80A8FB"/>
<path d="M45.816 43.7734H24.4702V44.3534H45.816V43.7734Z" fill="white"/>
<path d="M45.816 47.0322H24.4702V47.6122H45.816V47.0322Z" fill="white"/>
<path d="M45.816 50.2915H24.4702V50.8714H45.816V50.2915Z" fill="white"/>
<path d="M51.877 53.5498H24.4702V54.1297H51.877V53.5498Z" fill="white"/>
<path d="M115.163 77.0625H50.1299V77.6424H115.163V77.0625Z" fill="white"/>
<path d="M115.163 81.8618H50.1299V82.4417H115.163V81.8618Z" fill="white"/>
<path d="M115.163 86.2422H50.1299V86.8221H115.163V86.2422Z" fill="white"/>
<path d="M115.163 90.9004H50.1299V91.4803H115.163V90.9004Z" fill="white"/>
<g opacity="0.2">
<path d="M38.017 76.9524C37.2983 76.4655 36.517 76.1083 35.7042 75.8842L35.4063 73.8125L33.9801 73.7568L32.5539 73.7012L32.0965 75.7433C31.2696 75.9039 30.4624 76.1985 29.7085 76.6283L28.0372 75.3747L26.9896 76.3464L25.9421 77.3182L27.0585 79.0868C26.573 79.8077 26.2168 80.5913 25.9934 81.4066L23.9279 81.7053L23.8724 83.1358L23.8169 84.5662L25.8529 85.025C26.0131 85.8543 26.3068 86.664 26.7353 87.4201L25.4855 89.0964L26.4543 90.1471L27.4231 91.1977L29.1865 90.078C29.9053 90.5649 30.6865 90.9222 31.4994 91.1463L31.7972 93.218L33.2234 93.2736L34.6496 93.3293L35.107 91.2872C35.9339 91.1265 36.7411 90.8313 37.495 90.4022L39.1664 91.6557L40.2139 90.684L41.2614 89.7123L40.145 87.9436C40.6305 87.2228 40.9867 86.4392 41.2101 85.6239L43.2756 85.3251L43.3311 83.8947L43.3866 82.4642L41.3506 82.0055C41.1904 81.1761 40.8968 80.3665 40.4682 79.6104L41.7181 77.934L40.7492 76.8834L39.7804 75.8327L38.017 76.9524ZM37.2386 87.456C35.0684 89.4699 31.6813 89.3381 29.6734 87.1615C27.6655 84.9848 27.7969 81.5877 29.9671 79.5738C32.1373 77.5599 35.5243 77.6916 37.5322 79.8683C39.5401 82.045 39.4088 85.4421 37.2386 87.456Z" fill="#00A1F9"/>
</g>
<path opacity="0.2" d="M77.858 43.5088H73.2183V53.9567H77.858V43.5088Z" fill="#00A1F9"/>
<path opacity="0.2" d="M84.9659 47.5244H80.3262V53.9565H84.9659V47.5244Z" fill="#00A1F9"/>
<path opacity="0.2" d="M92.0733 49.9668H87.4336V53.9565H92.0733V49.9668Z" fill="#00A1F9"/>
<path d="M115.776 50.0547L110.869 51.6303L106.625 46.4976L103.68 46.9859C103.68 46.9859 107.917 56.3479 109.131 56.5346C110.345 56.7214 115.962 55.5122 115.962 55.5122L115.777 50.0547H115.776Z" fill="#3E04A8"/>
<path d="M117.881 45.5364L117.9 44.9642C117.919 44.3793 118.303 43.8649 118.861 43.693C119.824 43.3956 120.882 43.8889 120.882 43.8889C120.882 43.8889 121.246 44.4745 121.281 44.5428C121.316 44.6112 120.859 44.3751 120.859 44.3751L117.881 45.5364Z" fill="#FE9F73"/>
<path d="M117.824 47.313L117.903 44.9003L121.013 44.0737L121.015 47.0178L120.964 47.776C120.964 47.776 121.128 49.3276 121.046 49.6482C120.964 49.9689 120.477 50.6002 119.618 50.572C119.347 50.5629 119.109 50.5086 118.911 50.4389C118.506 50.2951 118.265 49.878 118.331 49.4516L118.508 48.3059C117.76 48.1734 117.824 47.3123 117.824 47.3123V47.313Z" fill="#FE9F73"/>
<path d="M119.819 46.069C119.81 46.0655 119.802 46.0591 119.798 46.0492C119.788 46.0246 119.539 45.4552 119.052 45.6152C119.033 45.6215 119.013 45.611 119.007 45.5919C119.001 45.5729 119.011 45.5525 119.03 45.5468C119.58 45.3664 119.862 46.0147 119.865 46.0211C119.873 46.0394 119.864 46.0605 119.846 46.0683C119.837 46.0718 119.828 46.0718 119.819 46.0683L119.819 46.069Z" fill="#3D0E53"/>
<path d="M118.356 45.531C118.349 45.5338 118.34 45.5338 118.331 45.5303C118.328 45.5289 117.954 45.3767 117.839 45.5684C117.829 45.5853 117.807 45.5909 117.79 45.5803C117.773 45.5698 117.768 45.5479 117.778 45.531C117.925 45.2865 118.342 45.4563 118.359 45.4634C118.378 45.4711 118.386 45.4922 118.379 45.5106C118.375 45.5204 118.366 45.5275 118.357 45.531H118.356Z" fill="#3D0E53"/>
<path d="M118.29 46.0684C118.285 46.0698 118.28 46.0698 118.274 46.0684C118.272 46.0677 118.046 45.9754 117.977 46.0917C117.97 46.1022 117.957 46.1051 117.947 46.0994C117.937 46.0931 117.934 46.0797 117.939 46.0698C118.028 45.9219 118.28 46.0247 118.291 46.029C118.302 46.0339 118.307 46.0466 118.303 46.0572C118.3 46.0635 118.295 46.0677 118.289 46.0698L118.29 46.0684Z" fill="black"/>
<path d="M119.211 46.2269C119.214 46.1677 119.263 46.1205 119.323 46.1226C119.382 46.1247 119.429 46.1741 119.426 46.234C119.424 46.2932 119.375 46.3404 119.315 46.3383C119.256 46.3361 119.209 46.2868 119.211 46.2269Z" fill="black"/>
<path d="M121.999 44.6438C122.204 45.4492 121.797 45.8586 121.782 46.0961C121.766 46.3336 121.874 47.943 120.755 47.7866L120.538 45.1265L120.963 44.0843L120.883 43.8511C120.883 43.8511 121.794 43.837 121.999 44.6431L121.999 44.6438Z" fill="#3D0E53"/>
<path d="M120.723 46.8865C120.367 46.8745 120.088 46.5757 120.1 46.2191C120.112 45.8619 120.41 45.5821 120.765 45.5941C121.121 45.6061 121.4 45.9049 121.388 46.2614C121.377 46.6187 121.079 46.8984 120.723 46.8865Z" fill="#FE9F73"/>
<path d="M120.927 46.1754C120.75 46.057 120.591 46.2015 120.585 46.2071L120.538 46.2508L120.556 46.1888C120.587 46.0781 120.645 46.0006 120.728 45.9583C120.871 45.8858 121.036 45.945 121.043 45.9478C121.052 45.9513 121.057 45.9619 121.054 45.971C121.05 45.9802 121.04 45.9851 121.031 45.9816C121.029 45.9816 120.873 45.9245 120.744 45.9908C120.684 46.0211 120.639 46.0732 120.608 46.1458C120.676 46.1042 120.807 46.0514 120.947 46.1451C121.042 46.2085 121.078 46.3255 121.039 46.4439C121.006 46.5439 120.913 46.6419 120.78 46.6376C120.778 46.6376 120.777 46.6376 120.776 46.6376C120.766 46.6376 120.759 46.6285 120.759 46.6186C120.759 46.6087 120.768 46.601 120.778 46.6017C120.779 46.6017 120.78 46.6017 120.781 46.6017C120.904 46.6059 120.979 46.5136 121.005 46.4326C121.031 46.3551 121.026 46.2409 120.927 46.1747V46.1754Z" fill="#F07162"/>
<path d="M118.508 48.3059C118.508 48.3059 119.666 48.5786 120.276 47.6309C120.276 47.6309 120.178 49.0719 118.377 49.1508L118.509 48.3059H118.508Z" fill="#F07162"/>
<path d="M118.826 46.9302C118.824 46.938 118.817 46.9422 118.809 46.9422C118.807 46.9422 118.805 46.9422 118.803 46.9408L118.42 46.7999L118.567 45.9268C118.568 45.9169 118.577 45.9099 118.587 45.912C118.597 45.9134 118.603 45.9226 118.602 45.9324L118.46 46.7759L118.815 46.907C118.824 46.9105 118.829 46.9204 118.826 46.9302H118.826Z" fill="#F07162"/>
<path d="M120.898 46.7568L120.983 47.9773L120.556 47.9977L120.596 46.7801L120.898 46.7568Z" fill="#FE9F73"/>
<path d="M118.881 42.999C119.698 43.2971 121.232 43.3118 121.637 44.0947C122.043 44.8776 120.537 45.1651 120.537 45.1651C120.537 45.1651 117.804 44.9128 117.657 44.2638C117.509 43.6148 118.153 43.6191 118.153 43.6191C118.153 43.6191 118.063 42.7009 118.881 42.999Z" fill="#3D0E53"/>
<path d="M120.055 45.0067C119.726 44.8207 120.686 44.6692 120.714 44.6847C120.743 44.7002 121.285 45.0011 121.212 44.9863C121.14 44.9715 120.595 44.9954 120.595 44.9954L120.576 45.5881C120.576 45.5881 120.335 45.9291 120.397 46.3744C120.397 46.3744 120.227 46.4308 120.203 46.2906C120.178 46.1511 120.385 45.1927 120.055 45.006V45.0067Z" fill="#3D0E53"/>
<path d="M118.341 47.1127C118.341 47.1127 119.094 47.0816 119.106 47.0831C119.106 47.0831 119.015 47.3966 118.735 47.4072C118.455 47.4178 118.341 47.1119 118.341 47.1119V47.1127Z" fill="#FBFDFC"/>
<path d="M132.905 70.4128C132.82 70.541 132.648 70.5763 132.52 70.491C132.392 70.4058 132.357 70.2331 132.442 70.1049L133.25 68.5039C133.305 68.42 133.501 68.3799 133.666 68.3848C135.244 67.9352 135.424 67.6188 135.861 67.5371L135.922 67.8803L136.218 69.5306C136.302 70.0309 136.476 70.5115 136.732 70.949L136.796 71.059C136.876 71.1971 136.825 71.3761 136.68 71.4493C136.548 71.5156 136.386 71.4606 136.311 71.3324L135.846 70.5354C135.831 70.5107 135.802 70.4974 135.774 70.503C135.733 70.5115 135.709 70.5558 135.726 70.5953L136.251 71.8538C136.312 71.9983 136.236 72.1413 136.083 72.1723C135.931 72.2033 135.757 72.111 135.696 71.9666L135.16 70.6834C135.147 70.6538 135.116 70.6369 135.084 70.6432L135.062 70.6475C135.025 70.6552 135.001 70.6904 135.009 70.7271L135.315 72.2393C135.345 72.3844 135.261 72.5338 135.118 72.5733C134.961 72.6155 134.804 72.5169 134.772 72.3598L134.464 70.8384C134.456 70.8018 134.421 70.7778 134.384 70.7856L134.314 70.7997C134.281 70.8067 134.257 70.837 134.259 70.8708L134.36 72.3097C134.37 72.4577 134.268 72.5951 134.121 72.6148C133.96 72.6367 133.817 72.5176 133.806 72.3583C133.806 72.3583 133.535 70.1725 133.465 69.8343L132.904 70.4114L132.905 70.4128Z" fill="#FE9F73"/>
<path d="M126.957 96.6888L127.09 100.622L123.669 100.351L123.25 95.7622L126.957 96.6888Z" fill="#FE9F73"/>
<path d="M120.375 101.563C120.168 101.563 120.004 101.375 120.045 101.161C120.075 101.001 120.223 100.89 120.386 100.89L120.856 100.889L123.039 99.5771L124.238 100.88L127.186 100.872C127.259 100.872 127.319 100.931 127.319 101.005L127.321 101.471C127.321 101.521 127.28 101.562 127.23 101.562H120.375V101.563Z" fill="#00A1F9"/>
<path d="M121.252 100.292L123.752 99.1724C124.762 100.155 125.904 99.338 125.904 99.338C126.659 98.9941 127.158 99.6628 127.158 99.6628L127.16 100.876L120.381 100.894C120.566 100.524 121.252 100.292 121.252 100.292Z" fill="#80A8FB"/>
<path d="M127.173 99.6732L127.124 99.6733L127.126 100.881L127.176 100.881L127.173 99.6732Z" fill="black"/>
<path d="M124.732 99.6234C124.737 99.6241 125.329 99.7059 125.889 99.3169L125.918 99.3585C125.516 99.6375 125.099 99.6812 124.88 99.6819C124.784 99.6819 124.726 99.6742 124.725 99.6742L124.732 99.6241V99.6234Z" fill="black"/>
<path d="M126.841 100.402L126.522 100.619L126.55 100.661L126.869 100.444L126.841 100.402Z" fill="black"/>
<path d="M126.611 100.338L126.292 100.555L126.32 100.596L126.639 100.379L126.611 100.338Z" fill="black"/>
<path d="M120.174 101.467L120.142 101.506C120.061 101.437 120.014 101.337 120.014 101.23C120.014 101.031 120.175 100.868 120.373 100.867L127.151 100.85C127.258 100.85 127.344 100.936 127.345 101.043V101.378H127.296V101.043C127.295 100.964 127.23 100.899 127.152 100.9L120.374 100.917C120.203 100.917 120.064 101.057 120.064 101.229C120.064 101.321 120.105 101.408 120.175 101.467H120.174Z" fill="black"/>
<path d="M120.396 100.902L120.35 100.881C120.356 100.869 120.492 100.587 121.004 100.366C121.507 100.15 123.719 99.159 123.741 99.1484L123.762 99.1942C123.739 99.2041 121.527 100.195 121.024 100.412C120.531 100.624 120.397 100.9 120.396 100.902V100.902Z" fill="black"/>
<path d="M113.001 95.6945L116.55 95.4458L115.818 100.617L112.342 100.332L113.001 95.6945Z" fill="#FE9F73"/>
<path d="M109.165 101.563C108.958 101.563 108.794 101.375 108.835 101.161C108.865 101.001 109.013 100.89 109.176 100.89L109.646 100.889L111.829 99.5771L113.028 100.88L115.976 100.872C116.049 100.872 116.109 100.931 116.109 101.005L116.111 101.471C116.111 101.521 116.07 101.562 116.02 101.562H109.165V101.563Z" fill="#00A1F9"/>
<path d="M110.042 100.292L112.542 99.1724C113.553 100.155 114.694 99.338 114.694 99.338C115.449 98.9941 115.948 99.6628 115.948 99.6628L115.95 100.876L109.171 100.894C109.356 100.524 110.042 100.292 110.042 100.292Z" fill="#80A8FB"/>
<path d="M115.965 99.6703L115.915 99.6704L115.918 100.878L115.968 100.878L115.965 99.6703Z" fill="black"/>
<path d="M113.522 99.6234C113.527 99.6241 114.119 99.7059 114.679 99.3169L114.708 99.3585C114.306 99.6375 113.889 99.6812 113.67 99.6819C113.574 99.6819 113.516 99.6742 113.515 99.6742L113.522 99.6241V99.6234Z" fill="black"/>
<path d="M115.632 100.384L115.313 100.601L115.341 100.643L115.66 100.426L115.632 100.384Z" fill="black"/>
<path d="M115.404 100.32L115.084 100.537L115.112 100.579L115.432 100.361L115.404 100.32Z" fill="black"/>
<path d="M108.964 101.467L108.932 101.506C108.851 101.437 108.804 101.337 108.804 101.23C108.804 101.031 108.965 100.868 109.163 100.867L115.941 100.85C116.048 100.85 116.134 100.936 116.135 101.043V101.378H116.086V101.043C116.085 100.964 116.02 100.899 115.942 100.9L109.164 100.917C108.993 100.917 108.854 101.057 108.854 101.229C108.854 101.321 108.895 101.408 108.965 101.467H108.964Z" fill="black"/>
<path d="M109.186 100.902L109.14 100.881C109.146 100.869 109.282 100.587 109.794 100.366C110.297 100.15 112.509 99.159 112.531 99.1484L112.552 99.1942C112.529 99.2041 110.317 100.195 109.814 100.412C109.321 100.624 109.187 100.9 109.186 100.902V100.902Z" fill="black"/>
<path d="M116.259 99.0494C115.593 99.2439 112.212 98.5202 112.283 97.9833L116.463 66.6974C116.472 66.6283 116.487 66.5593 116.508 66.493L116.55 66.3556C116.784 65.5981 117.656 65.2507 118.344 65.6411L122.657 68.0862C123.117 68.347 123.361 68.8712 123.266 69.3927C122.599 73.0322 117.612 98.6562 116.26 99.0501L116.259 99.0494Z" fill="#008EE5"/>
<path d="M127.866 98.912C127.825 99.4314 123.034 98.9459 122.998 98.5048L121.074 84.1545L120.754 71.4306L119.439 64.3403L128.08 68.4111C128.08 68.4111 128.294 68.6542 128.248 69.0122C128.012 70.8541 127.277 77.0678 127.137 83.9057C127.044 88.4402 128.179 94.9956 127.866 98.9113V98.912Z" fill="#00A1F9"/>
<path d="M122.748 96.5421C122.726 96.5386 122.707 96.521 122.703 96.497L121.021 84.162V84.1592L120.782 74.6675C120.782 74.6379 120.805 74.614 120.834 74.6133C120.864 74.6133 120.888 74.6358 120.888 74.6654L121.126 84.1508L122.808 96.4822C122.812 96.5111 122.792 96.5379 122.762 96.5421C122.757 96.5428 122.752 96.5421 122.747 96.5421H122.748Z" fill="black"/>
<path d="M127.221 82.6617C127.223 82.6871 127.223 82.7244 127.224 82.7794C127.254 84.6721 127.324 88.1101 127.464 89.8752C127.466 89.9048 127.444 89.9302 127.414 89.9323C127.41 89.9323 127.406 89.9323 127.403 89.9323C127.379 89.9288 127.36 89.9091 127.358 89.8837C127.218 88.1157 127.147 84.6749 127.118 82.7808C127.118 82.7526 127.117 82.7293 127.117 82.7103H127.114L127.116 82.6575C127.116 82.6561 127.116 82.6554 127.116 82.6539C127.124 82.537 127.753 72.9276 127.759 72.8304C127.762 72.8008 127.787 72.7789 127.816 72.7803C127.846 72.7817 127.868 72.8078 127.866 72.8367L127.23 82.5518C127.226 82.6011 127.224 82.6356 127.221 82.6596V82.6617Z" fill="black"/>
<path d="M112.816 94.3358C112.816 94.3358 112.816 94.3358 112.815 94.3358C112.786 94.3315 112.766 94.3048 112.77 94.2759L115.824 71.1308C115.827 71.1019 115.855 71.0808 115.884 71.085C115.915 71.0885 115.934 71.116 115.929 71.1449L112.875 94.29C112.872 94.3188 112.844 94.34 112.816 94.3358Z" fill="black"/>
<path d="M129.395 61.177C128.839 60.5379 126.926 58.1759 126.926 58.1759L128.411 69.5624C128.411 69.5624 122.166 71.8215 115.842 70.0993C115.842 70.0993 115.38 59.4661 115.133 52.4626C115.092 51.2788 115.07 50.7334 115.291 50.4163C115.399 50.2627 115.513 50.1076 115.777 50.0548C117.961 49.6179 122.517 48.9435 123.54 49.1704C125.67 49.644 133.861 56.8934 134.404 58.3514C134.948 59.81 136.652 67.781 136.652 67.781C136.652 67.781 135.942 68.547 132.361 68.788C132.361 68.788 129.952 61.8154 129.395 61.1763V61.177Z" fill="#3E04A8"/>
<path d="M133.681 68.7409C132.972 68.836 132.42 68.8691 132.366 68.872L132.299 68.8762L132.281 68.8107C131.487 65.8589 129.435 61.4576 129.324 61.2222L125.276 56.3242C125.247 56.289 125.251 56.2361 125.287 56.2065C125.322 56.1776 125.375 56.1819 125.405 56.2178L129.46 61.1243L129.471 61.1419C129.492 61.187 131.595 65.6693 132.425 68.7014C132.889 68.669 135.628 68.4499 136.603 67.7149C136.639 67.6874 136.691 67.6945 136.719 67.7318C136.747 67.7685 136.74 67.8206 136.703 67.8488C136.053 68.3392 134.704 68.6049 133.682 68.7416L133.681 68.7409Z" fill="black"/>
<path d="M127.773 64.6735C127.728 64.6791 127.686 64.6474 127.68 64.6016L126.842 58.1871C126.837 58.1413 126.868 58.0998 126.914 58.0934C126.96 58.0878 127.001 58.1195 127.008 58.1653L127.845 64.5798C127.851 64.6256 127.819 64.6671 127.773 64.6735Z" fill="black"/>
<path d="M132.158 55.8707C126.884 50.9142 123.993 49.4224 123.965 49.4083C123.924 49.3872 123.907 49.3371 123.929 49.2963C123.949 49.2554 123.999 49.2385 124.04 49.2596C124.069 49.2744 126.977 50.7732 132.272 55.7495C132.306 55.7812 132.307 55.8333 132.276 55.8672C132.262 55.882 132.245 55.8904 132.226 55.8925C132.202 55.8961 132.177 55.8883 132.158 55.8707H132.158Z" fill="black"/>
<path d="M124.693 70.3619C124.736 70.3584 124.781 70.3851 124.788 70.4302C124.796 70.4753 124.765 70.5183 124.72 70.5261C124.448 70.5712 124.181 70.6113 123.92 70.6459C118.872 71.3216 115.844 70.1878 115.813 70.1759L115.761 70.1561L115.06 51.6576C115.058 51.6118 115.095 51.573 115.14 51.5709C115.185 51.5688 115.224 51.6047 115.226 51.6505L115.923 70.0384C116.361 70.1899 119.584 71.2089 124.693 70.3612V70.3619Z" fill="black"/>
<path d="M111.386 46.3505L117.089 46.2018V45.1956L111.386 45.0469V46.3505Z" fill="#80A8FB"/>
<path d="M107.433 46.7499L113.136 46.5103V44.8875L107.433 44.6479V46.7499Z" fill="#F427C0"/>
<path d="M99.6875 47.4153L107.433 47.0242V44.374L99.6875 43.9829V47.4153Z" fill="#80A8FB"/>
<path d="M117.089 46.3179H117.407V45.0784H117.089V46.3179Z" fill="#2C4A68"/>
<path d="M99.3692 47.8125H99.6875V43.5839H99.3692V47.8125Z" fill="#2C4A68"/>
<path d="M105.205 44.6129L105.108 43.7363C105.108 43.7363 104.969 43.6024 104.799 43.6271C104.629 43.6517 104.558 43.775 104.561 43.8032L104.659 44.684C104.671 44.7904 104.792 44.8679 104.937 44.8546C105.096 44.8398 105.218 44.7284 105.205 44.6136V44.6129Z" fill="#FE9F73"/>
<path d="M104.645 44.7317L104.562 43.7551C104.562 43.7551 104.48 43.6677 104.309 43.6902C104.138 43.7128 104.015 43.8143 104.018 43.8424L104.099 44.7951C104.108 44.9022 104.226 44.9819 104.372 44.9699C104.531 44.9572 104.656 44.8473 104.646 44.7324L104.645 44.7317Z" fill="#FE9F73"/>
<path d="M104.076 44.8256L104.013 43.9137C104.013 43.9137 103.938 43.832 103.779 43.851C103.62 43.87 103.503 43.9638 103.505 43.9905L103.567 44.8798C103.574 44.9799 103.682 45.0546 103.818 45.0454C103.966 45.0348 104.084 44.9334 104.076 44.8256Z" fill="#FE9F73"/>
<path d="M105.257 44.6059L105.16 43.7377C105.158 43.7166 105.132 43.7032 105.104 43.7074C105.076 43.7117 105.055 43.7314 105.057 43.7525L105.154 44.6207C105.159 44.6665 105.139 44.7116 105.097 44.7496C105.056 44.787 104.998 44.8109 104.936 44.8165C104.819 44.8278 104.72 44.7658 104.71 44.677L104.609 43.7279C104.607 43.7067 104.582 43.6933 104.553 43.6976C104.529 43.7011 104.51 43.7166 104.506 43.7342C104.506 43.737 104.506 43.7398 104.506 43.7427L104.608 44.6918C104.622 44.8208 104.767 44.9096 104.937 44.8934C105.028 44.8849 105.112 44.8497 105.173 44.7947C105.233 44.7404 105.264 44.6721 105.256 44.6066L105.257 44.6059Z" fill="#F07162"/>
<path d="M105.743 44.6424L105.658 43.7552C105.649 43.6566 105.495 43.5911 105.396 43.6023C105.226 43.6221 105.103 43.7278 105.105 43.7559L105.195 44.7065C105.205 44.8108 105.318 44.8904 105.461 44.882C105.625 44.8714 105.753 44.7594 105.741 44.6424H105.743Z" fill="#FE9F73"/>
<path d="M105.794 44.6361L105.712 43.7658C105.709 43.7447 105.685 43.7313 105.657 43.7348C105.629 43.7383 105.608 43.7588 105.609 43.7792L105.691 44.6495C105.695 44.6953 105.674 44.7404 105.632 44.7777C105.59 44.815 105.532 44.8383 105.47 44.8432C105.353 44.8531 105.256 44.7911 105.247 44.7016L105.161 43.7503C105.159 43.7292 105.135 43.7158 105.107 43.7193C105.082 43.7228 105.062 43.7376 105.059 43.756C105.059 43.7588 105.058 43.7616 105.059 43.7644L105.145 44.7157C105.157 44.8446 105.3 44.9348 105.471 44.92C105.562 44.9123 105.646 44.8778 105.708 44.8235C105.769 44.7699 105.8 44.7016 105.794 44.6361H105.794Z" fill="#F07162"/>
<path d="M104.697 44.7255L104.613 43.7489C104.612 43.7277 104.587 43.7143 104.558 43.7178C104.53 43.7214 104.508 43.7411 104.51 43.7622L104.593 44.7389C104.597 44.7847 104.576 44.8298 104.534 44.8671C104.491 44.9038 104.433 44.927 104.371 44.932C104.255 44.9411 104.17 44.884 104.162 44.7939L104.1 43.863C104.099 43.8419 104.075 43.8278 104.046 43.8313C104.021 43.8341 104.001 43.8503 103.998 43.8679C103.998 43.8701 103.998 43.8729 103.998 43.875L104.059 44.8065C104.071 44.9369 104.202 45.0215 104.371 45.0081C104.463 45.001 104.547 44.9672 104.609 44.9129C104.67 44.8594 104.702 44.791 104.697 44.7255Z" fill="#F07162"/>
<path d="M104.164 44.823L104.101 43.9112C104.099 43.89 104.075 43.8759 104.047 43.8794C104.019 43.883 103.996 43.9027 103.998 43.9231L104.061 44.835C104.064 44.8765 104.044 44.9181 104.005 44.9519C103.965 44.9857 103.912 45.0062 103.855 45.0104C103.748 45.0182 103.66 44.9597 103.655 44.8772L103.593 43.988C103.591 43.9668 103.568 43.9527 103.539 43.9563C103.513 43.9591 103.494 43.9753 103.49 43.9929C103.49 43.995 103.49 43.9978 103.49 43.9999L103.552 44.8892C103.56 45.0111 103.693 45.0978 103.853 45.0865C103.939 45.0802 104.019 45.0492 104.079 44.9984C104.137 44.9484 104.169 44.8843 104.164 44.8223V44.823Z" fill="#F07162"/>
</g>
<defs>
<clipPath id="clip0_63_2256">
<rect width="136.567" height="102" fill="white" transform="translate(0.305664)"/>
</clipPath>
</defs>
</svg>
